<?xml version="1.0" encoding="utf-8"?>
<!-- Generator: Adobe Illustrator 25.3.1, SVG Export Plug-In . SVG Version: 6.00 Build 0)  -->
<svg version="1.1" id="wave" xmlns="http://www.w3.org/2000/svg" xmlns:xlink="http://www.w3.org/1999/xlink" x="0px" y="0px"
	 viewBox="0 0 6836 261.3" style="enable-background:new 0 0 6836 261.3;" xml:space="preserve">
<style type="text/css">
	.st0{fill:#FFFFFF;}
</style>
<path class="st0" d="M6809.1,98.6c-23.8-9.9-71.4-29.7-119-34.7c-47.6-5-95.2,5-142.8,11.6c-47.6,6.8-95.2,9.8-142.8,1.7
	c-47.6-8.3-95.2-28.1-142.8-31.4c-47.6-3.1-95.2,9.8-142.8,18.2c-47.6,8.4-95.2,11.4-142.8,8.3c-47.6-3.3-95.2-13.2-142.8-16.6
	c-47.6-3.1-95.2-0.1-142.8-3.3c-47.6-3.3-95.2-13.2-142.8-18.2c-47.6-5-95.2-5-142.8,3.3c-47.6,8.1-95.2,24.9-142.8,31.4
	c-47.6,6.4-95.2,3.5-142.8,3.3c-47.6,0.1-95.2,3.1-142.8,0c-47.6-3.3-95.2-13.2-142.8-9.9c-47.6,3.1-95.2,20-142.8,18.1
	c-47.6-1.6-95.2-21.5-142.8-19.8c-47.6,1.8-95.2,24.6-142.8,34.7c-47.6,9.8-95.2,6.8-142.8,0c-47.6-6.6-95.2-16.5-142.8-28.1
	c-47.6-11.7-95.2-24.6-142.8-26.5c-47.6-1.6-95.2,8.3-142.8,11.6c-47.6,3.1-95.2,0.1-142.8,5c-47.6,5.1-55.2-4.4-99,14.3
	c-25.7,10.9-55.8,7.8-76.1,1.9c-186.2-53.8-96.8,3.6-247.5,4c-2.2,0-4.3-0.1-6.5-0.1c-47.6-1.8-95.2-14.7-142.8-19.8
	c-47.6-4.8-95.2-1.8-142.8-5c-47.6-3.3-95.2-13.2-142.8-11.6c-47.6,1.8-95.2,14.7-142.8,26.5c-47.6,11.6-95.2,21.5-142.8,28.1
	c-47.6,6.8-95.2,9.8-142.8,0c-47.6-10.1-95.2-32.9-142.8-34.7c-47.6-1.6-95.2,18.2-142.8,19.8c-47.6,1.8-95.2-15-142.8-18.1
	c-47.6-3.3-95.2,6.6-142.8,9.9c-47.6,3.1-95.2,0.1-142.8,0c-47.6,0.1-95.2,3.1-142.8-3.3c-47.6-6.4-95.2-23.3-142.8-31.4
	c-47.6-8.3-95.2-8.3-142.8-3.3c-47.6,5-95.2,14.9-142.8,18.2c-47.6,3.1-95.2,0.1-142.8,3.3C930.6,59.1,883,69,835.5,72.4
	c-47.6,3.1-95.2,0.1-142.8-8.3s-95.2-21.3-142.8-18.2c-47.6,3.3-95.2,23.2-142.8,31.4c-47.6,8.1-95.2,5.1-142.8-1.7
	c-47.6-6.6-95.2-16.5-142.8-11.6C74,69,26.4,88.9,2.6,98.8l-23.8,9.9v108.1H2.6c23.8,0,71.4,0,119,0s95.2,0,142.8,0s95.2,0,142.8,0
	s95.2,0,142.8,0s95.2,0,142.8,0s95.2,0,142.8,0c47.6,0,95.2,0,142.8,0c47.6,0,95.2,0,142.8,0s95.2,0,142.8,0c47.6,0,95.2,0,142.8,0
	s95.2,0,142.8,0c47.6,0,95.2,0,142.8,0s95.2,0,142.8,0c47.6,0,95.2,0,142.8,0s95.2,0,142.8,0c47.6,0,95.2,0,142.8,0s95.2,0,142.8,0
	s95.2,0,142.8,0s95.2,0,142.8,0s95.2,0,142.8,0s95.2,0,142.8,0s95.2,0,142.8,0s95.2,0,142.8,0c30,0,60.1,0,84.1,0l0.6,1l155.9-0.9
	l0.1-0.3c14.6,0,30.1,0,45.5,0c47.6,0,95.2,0,142.8,0s95.2,0,142.8,0s95.2,0,142.8,0c47.6,0,95.2,0,142.8,0c47.6,0,95.2,0,142.8,0
	c47.6,0,95.2,0,142.8,0c47.6,0,95.2,0,142.8,0c47.6,0,95.2,0,142.8,0c47.6,0,95.2,0,142.8,0c47.6,0,95.2,0,142.8,0
	c47.6,0,95.2,0,142.8,0c47.6,0,95.2,0,142.8,0c47.6,0,95.2,0,142.8,0c47.6,0,95.2,0,142.8,0c47.6,0,95.2,0,142.8,0
	c47.6,0,95.2,0,142.8,0c47.6,0,95.2,0,142.8,0c47.6,0,95.2,0,142.8,0c47.6,0,95.2,0,142.8,0c47.6,0,95.2,0,142.8,0
	c47.6,0,95.2,0,142.8,0c47.6,0,95.2,0,142.8,0s95.2,0,119,0h23.8V108.5L6809.1,98.6z"/>
</svg>
