<?xml version="1.0" encoding="utf-8"?>
<!-- Generator: Adobe Illustrator 25.3.1, SVG Export Plug-In . SVG Version: 6.00 Build 0)  -->
<svg version="1.1" id="wave" xmlns="http://www.w3.org/2000/svg" xmlns:xlink="http://www.w3.org/1999/xlink" x="0px" y="0px"
	 viewBox="0 0 5772.4 261.3" style="enable-background:new 0 0 5772.4 261.3;" xml:space="preserve">
<style type="text/css">
	.st0{fill:#FFFFFF;}
</style>
<path class="st0" d="M5755.1,104.6c-20-12-60-36-100-48s-80-12-120,6s-80,54-120,54s-80-36-120-45s-80,9-120,15s-80,0-120-3
	s-80-3-120-12s-80-27-120-36s-80-9-120-3s-80,18-120,27s-80,15-120,18s-80,3-120,18s-80,45-120,60s-80,15-120,9c-40-6-80-18-120-18
	s-80,12-120,21s-80,15-120,0s-80-51-120-57s-80,18-120,18s-80-24-120-39s-80-21-120-15s-80,24-120,39s-80,27-120,24
	c-5.8-0.4-11.6-1.2-17.4-2.2c-26.3-8.1-48.5-35.6-89.1-45.9c-49.2-12.5-53.1,16.8-103.8,36.8c-15.4,4.8-32.3,8.8-49.3,10.1
	c-40,3-80-9-120-24s-80-33-120-39s-80,0-120,15s-80,39-120,39s-80-24-120-18s-80,42-120,57s-80,9-120,0s-80-21-120-21s-80,12-120,18
	s-80,6-120-9s-80-45-120-60s-80-15-120-18s-80-9-120-18s-80-21-120-27s-80-6-120,3s-80,27-120,36s-80,9-120,12s-80,9-120,3
	s-80-24-120-15s-80,45-120,45s-80-36-120-54s-80-18-120-6s-80,36-100,48l-19.8,11.9c-0.1,0.1-0.2,0.2-0.2,0.3v89.5
	c0,0.2,0.2,0.3,0.3,0.3h19.7c20,0,60,0,100,0s80,0,120,0s80,0,120,0s80,0,120,0s80,0,120,0s80,0,120,0s80,0,120,0s80,0,120,0
	s80,0,120,0s80,0,120,0s80,0,120,0s80,0,120,0s80,0,120,0s80,0,120,0s80,0,120,0s80,0,120,0s80,0,120,0s80,0,120,0s80,0,120,0
	s80,0,120,0s80,0,120,0s80,0,120,0s80,0,120,0s80,0,100,0h1.8l0,0.4l37.8,0.5v0.3h20c20,0,60,0,100,0s80,0,120,0s80,0,120,0
	s80,0,120,0s80,0,120,0s80,0,120,0s80,0,120,0s80,0,120,0s80,0,120,0s80,0,120,0c40,0,80,0,120,0s80,0,120,0s80,0,120,0s80,0,120,0
	s80,0,120,0s80,0,120,0s80,0,120,0s80,0,120,0s80,0,120,0s80,0,120,0s80,0,120,0s80,0,120,0s80,0,120,0s80,0,100,0h20v-90
	L5755.1,104.6z"/>
</svg>
