<?xml version="1.0" encoding="utf-8"?>
<!-- Generator: Adobe Illustrator 25.3.1, SVG Export Plug-In . SVG Version: 6.00 Build 0)  -->
<svg version="1.1" id="wave" xmlns="http://www.w3.org/2000/svg" xmlns:xlink="http://www.w3.org/1999/xlink" x="0px" y="0px"
	 viewBox="0 0 6836 261.3" style="enable-background:new 0 0 6836 261.3;" xml:space="preserve">
<style type="text/css">
	.st0{fill:#FFFFFF;}
	.st1{fill:url(#SVGID_1_);}
</style>
<path class="st0" d="M5673.9-763.9c-20-12-60-36-100-48s-80-12-120,6s-80,54-120,54s-80-36-120-45s-80,9-120,15s-80,0-120-3
	s-80-3-120-12s-80-27-120-36s-80-9-120-3s-80,18-120,27s-80,15-120,18s-80,3-120,18s-80,45-120,60c-40,15-80,15-120,9
	c-40-6-80-18-120-18s-80,12-120,21s-80,15-120,0s-80-51-120-57s-80,18-120,18s-80-24-120-39s-80-21-120-15s-80,24-120,39
	s-80,27-120,24c-5.8-0.4-11.6-1.2-17.4-2.2c-26.3-8.1-48.5-35.6-89.1-45.9c-49.2-12.5-53.1,16.8-103.8,36.8
	c-15.4,4.8-32.3,8.8-49.3,10.1c-40,3-80-9-120-24s-80-33-120-39s-80,0-120,15s-80,39-120,39s-80-24-120-18s-80,42-120,57
	s-80,9-120,0s-80-21-120-21s-80,12-120,18s-80,6-120-9s-80-45-120-60s-80-15-120-18s-80-9-120-18s-80-21-120-27c-40-6-80-6-120,3
	s-80,27-120,36s-80,9-120,12s-80,9-120,3s-80-24-120-15s-80,45-120,45s-80-36-120-54s-80-18-120-6s-80,36-100,48l-19.8,11.9
	c-0.1,0.1-0.2,0.2-0.2,0.3v89.5c0,0.2,0.2,0.3,0.3,0.3h19.7c20,0,60,0,100,0s80,0,120,0s80,0,120,0s80,0,120,0s80,0,120,0
	s80,0,120,0s80,0,120,0s80,0,120,0s80,0,120,0c40,0,80,0,120,0s80,0,120,0s80,0,120,0s80,0,120,0s80,0,120,0s80,0,120,0s80,0,120,0
	s80,0,120,0s80,0,120,0s80,0,120,0s80,0,120,0s80,0,120,0s80,0,120,0s80,0,120,0s80,0,100,0h1.8l0,0.4l37.8,0.5v0.3h20
	c20,0,60,0,100,0s80,0,120,0s80,0,120,0s80,0,120,0s80,0,120,0s80,0,120,0s80,0,120,0s80,0,120,0s80,0,120,0s80,0,120,0
	c40,0,80,0,120,0c40,0,80,0,120,0s80,0,120,0s80,0,120,0s80,0,120,0s80,0,120,0s80,0,120,0s80,0,120,0s80,0,120,0s80,0,120,0
	s80,0,120,0s80,0,120,0s80,0,120,0s80,0,100,0h20v-90L5673.9-763.9z"/>
<linearGradient id="SVGID_1_" gradientUnits="userSpaceOnUse" x1="3405.8467" y1="217.7514" x2="3405.8467" y2="30.7401">
	<stop  offset="0" style="stop-color:#000000"/>
	<stop  offset="1" style="stop-color:#000000"/>
</linearGradient>
<path class="st1" d="M6809.1,98.6c-23.8-9.9-71.4-29.7-119-34.7c-47.6-5-95.2,5-142.8,11.6c-47.6,6.8-95.2,9.8-142.8,1.7
	c-47.6-8.3-95.2-28.1-142.8-31.4c-47.6-3.1-95.2,9.8-142.8,18.2c-47.6,8.4-95.2,11.4-142.8,8.3c-47.6-3.3-95.2-13.2-142.8-16.6
	c-47.6-3.1-95.2-0.1-142.8-3.3c-47.6-3.3-95.2-13.2-142.8-18.2c-47.6-5-95.2-5-142.8,3.3c-47.6,8.1-95.2,24.9-142.8,31.4
	c-47.6,6.4-95.2,3.5-142.8,3.3c-47.6,0.1-95.2,3.1-142.8,0c-47.6-3.3-95.2-13.2-142.8-9.9c-47.6,3.1-95.2,20-142.8,18.1
	c-47.6-1.6-95.2-21.5-142.8-19.8c-47.6,1.8-95.2,24.6-142.8,34.7c-47.6,9.8-95.2,6.8-142.8,0c-47.6-6.6-95.2-16.5-142.8-28.1
	c-47.6-11.7-95.2-24.6-142.8-26.5c-47.6-1.6-95.2,8.3-142.8,11.6c-47.6,3.1-95.2,0.1-142.8,5c-47.6,5.1-95.2,18-142.8,19.8
	c-6.2,0.2-12.4,0.2-18.6,0.1c-113-48.1-226.8-12.7-261.2,0.3c-2.2,0-4.3-0.1-6.5-0.1c-47.6-1.8-95.2-14.7-142.8-19.8
	c-47.6-4.8-95.2-1.8-142.8-5c-47.6-3.3-95.2-13.2-142.8-11.6c-47.6,1.8-95.2,14.7-142.8,26.5c-47.6,11.6-95.2,21.5-142.8,28.1
	c-47.6,6.8-95.2,9.8-142.8,0c-47.6-10.1-95.2-32.9-142.8-34.7c-47.6-1.6-95.2,18.2-142.8,19.8c-47.6,1.8-95.2-15-142.8-18.1
	c-47.6-3.3-95.2,6.6-142.8,9.9c-47.6,3.1-95.2,0.1-142.8,0c-47.6,0.1-95.2,3.1-142.8-3.3c-47.6-6.4-95.2-23.3-142.8-31.4
	c-47.6-8.3-95.2-8.3-142.8-3.3c-47.6,5-95.2,14.9-142.8,18.2c-47.6,3.1-95.2,0.1-142.8,3.3C930.6,59.1,883,69,835.5,72.4
	c-47.6,3.1-95.2,0.1-142.8-8.3s-95.2-21.3-142.8-18.2c-47.6,3.3-95.2,23.2-142.8,31.4c-47.6,8.1-95.2,5.1-142.8-1.7
	c-47.6-6.6-95.2-16.5-142.8-11.6C74,69,26.4,88.9,2.6,98.8l-23.8,9.9v108.1H2.6c23.8,0,71.4,0,119,0s95.2,0,142.8,0s95.2,0,142.8,0
	s95.2,0,142.8,0s95.2,0,142.8,0s95.2,0,142.8,0c47.6,0,95.2,0,142.8,0c47.6,0,95.2,0,142.8,0s95.2,0,142.8,0c47.6,0,95.2,0,142.8,0
	s95.2,0,142.8,0c47.6,0,95.2,0,142.8,0s95.2,0,142.8,0c47.6,0,95.2,0,142.8,0s95.2,0,142.8,0c47.6,0,95.2,0,142.8,0s95.2,0,142.8,0
	s95.2,0,142.8,0s95.2,0,142.8,0s95.2,0,142.8,0s95.2,0,142.8,0s95.2,0,142.8,0s95.2,0,142.8,0c30,0,60.1,0,84.1,0l0.6,1l155.9-0.9
	l0.1-0.3c14.6,0,30.1,0,45.5,0c47.6,0,95.2,0,142.8,0s95.2,0,142.8,0s95.2,0,142.8,0c47.6,0,95.2,0,142.8,0c47.6,0,95.2,0,142.8,0
	c47.6,0,95.2,0,142.8,0c47.6,0,95.2,0,142.8,0c47.6,0,95.2,0,142.8,0c47.6,0,95.2,0,142.8,0c47.6,0,95.2,0,142.8,0
	c47.6,0,95.2,0,142.8,0c47.6,0,95.2,0,142.8,0c47.6,0,95.2,0,142.8,0c47.6,0,95.2,0,142.8,0c47.6,0,95.2,0,142.8,0
	c47.6,0,95.2,0,142.8,0c47.6,0,95.2,0,142.8,0c47.6,0,95.2,0,142.8,0c47.6,0,95.2,0,142.8,0c47.6,0,95.2,0,142.8,0
	c47.6,0,95.2,0,142.8,0c47.6,0,95.2,0,142.8,0s95.2,0,119,0h23.8V108.5L6809.1,98.6z"/>
</svg>
